<svg width="43" height="48" viewBox="0 0 43 48" fill="none" xmlns="http://www.w3.org/2000/svg">
<path fill-rule="evenodd" clip-rule="evenodd" d="M11.9167 17.3129H14.0485C14.727 17.3129 15.2871 17.7616 15.2871 18.4359V21.4719C15.2871 22.1476 14.727 22.7077 14.0485 22.7077H11.9167C11.2409 22.7077 10.6808 22.1476 10.6808 21.4719V18.4359C10.6808 17.7616 11.2409 17.3129 11.9167 17.3129ZM5.73058 23.7179H7.86787C8.54086 23.7179 9.10372 24.2794 9.10372 24.9578V27.9883C9.10372 28.5512 8.54086 29.1168 7.86787 29.1168H5.73058C5.05623 29.1168 4.49614 28.5512 4.49614 27.9883V24.9578C4.49614 24.2794 5.05623 23.7179 5.73058 23.7179ZM11.9167 23.7179H14.0485C14.727 23.7179 15.2871 24.2794 15.2871 24.9578V27.9883C15.2871 28.5512 14.727 29.1168 14.0485 29.1168H11.9167C11.2409 29.1168 10.6808 28.5512 10.6808 27.9883V24.9578C10.6808 24.2794 11.2409 23.7179 11.9167 23.7179ZM5.73058 17.3129H7.86787C8.54086 17.3129 9.10372 17.7616 9.10372 18.4359V21.4719C9.10372 22.1476 8.54086 22.7077 7.86787 22.7077H5.73058C5.05623 22.7077 4.49614 22.1476 4.49614 21.4719V18.4359C4.49614 17.7616 5.05623 17.3129 5.73058 17.3129ZM0 11.0154H19.7859V48H0V11.0154Z" fill="#1E4AA4"/>
<path fill-rule="evenodd" clip-rule="evenodd" d="M34.5097 6.07052H36.6483C37.32 6.07052 37.8828 6.63202 37.8828 7.30637V10.2295C37.8828 10.9039 37.32 11.464 36.6483 11.464H34.5097C33.8354 11.464 33.2752 10.9039 33.2752 10.2295V7.30637C33.2752 6.63202 33.8354 6.07052 34.5097 6.07052ZM28.3304 12.5924H30.4636C31.1379 12.5924 31.7035 13.0411 31.7035 13.7141V16.75C31.7035 17.4244 31.1379 17.873 30.4636 17.873H28.3304C27.6561 17.873 27.0918 17.4244 27.0918 16.75V13.7141C27.0905 13.0411 27.6561 12.5924 28.3304 12.5924ZM34.5097 12.5924H36.6483C37.32 12.5924 37.8828 13.0411 37.8828 13.7141V16.75C37.8828 17.4244 37.32 17.873 36.6483 17.873H34.5097C33.8354 17.873 33.2752 17.4244 33.2752 16.75V13.7141C33.2752 13.0411 33.8354 12.5924 34.5097 12.5924ZM28.3304 6.07052H30.4636C31.1379 6.07052 31.7035 6.63202 31.7035 7.30637V10.2295C31.7035 10.9039 31.1379 11.464 30.4636 11.464H28.3304C27.6561 11.464 27.0918 10.9039 27.0918 10.2295V7.30637C27.0905 6.63202 27.6561 6.07052 28.3304 6.07052ZM22.5957 0H42.3803V46.9884H22.5957V0Z" fill="#1E4AA4"/>
</svg>
