<svg width="50" height="50" viewBox="0 0 50 50" fill="none" xmlns="http://www.w3.org/2000/svg">
<path fill-rule="evenodd" clip-rule="evenodd" d="M50 21.8892V28.1094L43.2053 29.2618C42.7455 31.2209 41.9359 33.1787 40.8991 34.9079L44.8162 40.437L40.4378 44.8151L34.9085 40.8968C33.1777 41.9349 31.2213 42.7403 29.2648 43.2029L28.1096 50H21.8904L20.7394 43.2029C18.6631 42.7403 16.8223 41.9349 15.0915 40.8968L9.4465 44.8151L5.06954 40.437L9.10229 34.9079C7.95126 33.1787 7.14168 31.2195 6.68043 29.2618L0 28.1094V21.8892L6.68043 20.7368C7.14168 18.6634 7.95126 16.8199 9.10229 15.0907L5.06954 9.56301L9.4465 5.06925L15.0915 9.1018C16.8223 8.0651 18.6631 7.25969 20.7394 6.79708L21.8904 0H28.1096L29.2648 6.79708C31.2213 7.2583 33.1777 8.06371 34.9085 9.1018L40.4378 5.06925L44.8162 9.56301L40.8991 15.0907C41.9345 16.8199 42.7441 18.6634 43.2053 20.7368L50 21.8892ZM37 24.9993C37 18.4105 31.6792 13 25.06 13C18.3193 13 13 18.4119 13 24.9993C13 31.5895 18.3193 37 25.06 37C31.6792 37 37 31.5881 37 24.9993Z" fill="#1E4AA4"/>
</svg>
