<svg width="43" height="50" viewBox="0 0 43 50" fill="none" xmlns="http://www.w3.org/2000/svg">
<path fill-rule="evenodd" clip-rule="evenodd" d="M0.00148653 44.7755H6.40116V21.6164H5.09459V17.1029H7.82088L33.881 0.11924L33.9986 0L34.1175 0.11924C34.1175 0.356262 34.2349 0.712472 34.3538 0.949494C35.063 3.2091 35.4183 4.03796 34.8251 7.00576L32.1003 8.78989V23.5168H33.6433C33.9986 23.5168 34.3538 23.6346 34.5888 23.8717C34.9455 24.1087 35.063 24.5827 35.063 24.939V28.5029C35.063 28.8577 34.9455 29.2139 34.5888 29.4553C34.3538 29.8101 33.9986 29.9307 33.6433 29.9307H25.2321C24.8782 29.9307 24.5229 29.8101 24.2865 29.4553C23.9327 29.2139 23.8137 28.8577 23.8137 28.5029V24.939C23.8137 24.5827 23.9327 24.1087 24.2865 23.8717C24.5229 23.6346 24.8782 23.5168 25.2321 23.5168H26.7708V12.2346L12.9112 21.2601L12.4384 21.6149L11.6103 22.0904V44.774H43V50H0V44.7755H0.00148653Z" fill="#1E4AA4"/>
</svg>
